<mxfile host="app.diagrams.net" modified="2024-09-29T16:58:08.329Z" agent="Mozilla/5.0 (X11; Linux x86_64; rv:130.0) Gecko/20100101 Firefox/130.0" etag="wqzLs3FfV13a10f8gERd" version="24.2.1" type="github">
  <diagram name="Page-1" id="blZKFijT3qBmkAFtz_N1">
    <mxGraphModel dx="803" dy="498" grid="1" gridSize="10" guides="1" tooltips="1" connect="1" arrows="1" fold="1" page="1" pageScale="1" pageWidth="850" pageHeight="1100" math="0" shadow="0">
      <root>
        <mxCell id="0" />
        <mxCell id="1" parent="0" />
        <mxCell id="KCe79-yEBINX289Halzp-273" value="" style="shape=image;verticalLabelPosition=bottom;labelBackgroundColor=default;verticalAlign=top;aspect=fixed;imageAspect=0;image=https://raw.githubusercontent.com/josura/c2c-sepia/refs/heads/main/docs/images/MASFENON-visualModel.drawio.png;" vertex="1" parent="1">
          <mxGeometry x="430" y="446.37" width="245" height="763.63" as="geometry" />
        </mxCell>
      </root>
    </mxGraphModel>
  </diagram>
</mxfile>
